HIERARCHY
ROOT Hips
{
     OFFSET 49.30740 93.51020 89.29440
     CHANNELS 6 Xposition Yposition Zposition Zrotation Xrotation Yrotation
     JOINT Spine
     {
          OFFSET 0.00000 11.89050 -0.00000
          CHANNELS 3 Zrotation Xrotation Yrotation
          JOINT Spine1
          {
               OFFSET 0.00000 25.65740 0.12766
               CHANNELS 3 Zrotation Xrotation Yrotation
               JOINT HEad
               {
                    OFFSET 0.00000 8.73416 0.01134
                    CHANNELS 3 Zrotation Xrotation Yrotation
                    End Site
                    {
                         OFFSET -0.29000 12.77420 2.51395
                    }
               }
               JOINT LeftShoulder1
               {
                    OFFSET 8.99000 -0.36225 -0.22000
                    CHANNELS 3 Zrotation Xrotation Yrotation
                    JOINT LeftArm
                    {
                         OFFSET 10.28270 -0.00338 0.32212
                         CHANNELS 3 Zrotation Xrotation Yrotation
                         JOINT LeftForeArm
                         {
                              OFFSET 32.76690 0.09914 -1.42434
                              CHANNELS 3 Zrotation Xrotation Yrotation
                              JOINT LeftHand
                              {
                                   OFFSET 27.56430 0.08536 1.02216
                                   CHANNELS 3 Zrotation Xrotation Yrotation
                                   End Site
                                   {
                                        OFFSET 16.74430 -0.60000 1.50291
                                   }
                              }
                         }
                    }
               }
               JOINT RightShoulder
               {
                    OFFSET -8.99000 -0.36225 -0.22000
                    CHANNELS 3 Zrotation Xrotation Yrotation
                    JOINT RightArm
                    {
                         OFFSET -10.28270 -0.00338 0.32212
                         CHANNELS 3 Zrotation Xrotation Yrotation
                         JOINT RightForeArm
                         {
                              OFFSET -32.89710 0.09914 -1.42434
                              CHANNELS 3 Zrotation Xrotation Yrotation
                              JOINT RightHand
                              {
                                   OFFSET -27.49210 0.08536 1.02216
                                   CHANNELS 3 Zrotation Xrotation Yrotation
                                   End Site
                                   {
                                        OFFSET -16.63120 -0.60000 1.50291
                                   }
                              }
                         }
                    }
               }
          }
     }
     JOINT LeftUpLeg
     {
          OFFSET 8.94580 -8.66707 0.10165
          CHANNELS 3 Zrotation Xrotation Yrotation
          JOINT LeftLeg
          {
               OFFSET 0.00000 -44.42270 1.37270
               CHANNELS 3 Zrotation Xrotation Yrotation
               JOINT LeftFoot
               {
                    OFFSET -0.25355 -42.09240 -1.46059
                    CHANNELS 3 Zrotation Xrotation Yrotation
                    JOINT LeftToes
                    {
                         OFFSET -0.04000 -4.41509 8.49910
                         CHANNELS 3 Zrotation Xrotation Yrotation
                         End Site
                         {
                              OFFSET 0.08000 -0.04745 9.77979
                         }
                    }
               }
          }
     }
     JOINT RightUpLeg
     {
          OFFSET -8.94580 -8.66707 0.10165
          CHANNELS 3 Zrotation Xrotation Yrotation
          JOINT RightLeg
          {
               OFFSET -0.00000 -44.42270 1.37270
               CHANNELS 3 Zrotation Xrotation Yrotation
               JOINT RightFoot
               {
                    OFFSET 0.25355 -42.09240 -1.46059
                    CHANNELS 3 Zrotation Xrotation Yrotation
                    JOINT RightToes
                    {
                         OFFSET 0.04000 -4.41509 8.49910
                         CHANNELS 3 Zrotation Xrotation Yrotation
                         End Site
                         {
                              OFFSET -0.08000 -0.13745 9.77979
                         }
                    }
               }
          }
     }
}
MOTION
Frames: 8
Frame Time: 0.01667
82.41130 94.66950 35.15480 -14.11610 -5.86339 -85.39710 1.89173 12.91050 5.23408 3.24301 25.90120 10.40800 0.06731 5.12417 -42.13340 -0.00000 0.00000 -0.00000 -124.25000 -51.52360 -94.17120 -96.81680 50.44730 -29.28280 11.22310 7.68674 -19.66860 22.43820 4.79977 17.14800 61.95460 -20.34140 49.82410 57.45120 -3.74040 66.77670 34.82050 14.74690 11.05430 7.47429 -4.50465 -16.84150 -16.49160 1.27242 37.67370 -3.92768 19.02740 0.78110 6.75679 -17.63990 -66.62690 -38.59040 26.87440 28.96440 40.00330 2.57867 -26.19350 -11.43350 11.94170 1.91135 1.42905 -35.82100 -8.48686 
82.71640 94.47770 35.01150 -14.55250 -6.06007 -85.85210 2.11606 12.93770 6.01594 3.22974 26.02930 12.12290 -0.83119 5.64576 -43.18900 -0.00000 0.00000 -0.00000 -124.94900 -52.99230 -92.53680 -95.44840 50.88350 -29.60870 10.79770 7.83277 -19.05680 19.57330 4.44340 17.80190 69.31970 -17.16140 63.56580 59.22910 -2.36066 68.32070 35.53250 14.90100 11.21300 7.67081 -4.14789 -16.37770 -17.03120 1.17650 38.07220 -3.93802 18.77300 0.77629 6.88374 -17.34880 -66.84990 -39.01170 26.96890 28.94200 40.01120 2.89308 -26.26370 -12.65540 11.93170 2.12086 1.48989 -37.47850 -8.21072 
83.01260 94.30090 34.97790 -14.96620 -5.95944 -86.37570 2.29498 13.00130 6.77482 3.36819 26.19780 13.72510 -1.21971 5.76437 -43.98510 -0.00000 0.00000 -0.00000 -124.77500 -54.24360 -90.68310 -94.01610 51.03210 -29.89570 9.82188 8.08852 -18.39340 14.75500 3.58608 17.83350 77.76440 -12.67240 74.46970 60.87760 -0.78734 69.84800 35.86720 15.23370 12.08270 7.95766 -4.19349 -16.01570 -17.55310 1.80009 38.93690 -3.76146 18.38260 0.72525 6.84867 -17.48560 -67.25040 -39.34930 27.17680 29.11190 39.80180 2.92610 -25.16430 -13.75530 12.21630 2.34679 1.41035 -38.68780 -8.60252 
83.22300 94.16020 35.03560 -15.30430 -5.65204 -86.78210 2.39644 13.02940 7.39779 3.55887 26.26920 14.99540 -0.71604 5.77913 -44.55570 -0.00000 0.00000 -0.00000 -123.86100 -55.55680 -88.78660 -92.57890 51.46840 -30.26520 8.92388 8.33634 -17.46600 9.63293 2.56419 16.95170 85.43350 -7.79786 81.98480 62.15540 0.92459 70.78700 36.13060 15.60180 13.07710 8.29122 -4.51509 -15.93230 -18.06540 2.80196 40.25500 -3.41750 17.88380 0.63552 6.69641 -17.93010 -67.87100 -39.48910 27.44570 29.34480 39.46260 2.82998 -23.47130 -14.44580 12.44860 2.49876 1.24063 -39.06370 -9.36459 
83.25860 94.09330 35.15910 -15.54480 -5.22810 -87.24020 2.42003 12.99150 7.75140 3.70255 26.19460 15.68920 0.40049 5.96606 -44.50020 -0.00000 0.00000 -0.00000 -122.60300 -57.55050 -87.11640 -91.22620 52.38620 -30.94340 8.30366 8.54390 -16.15330 6.03943 1.81666 15.46370 90.83620 -3.60088 86.15990 62.71280 2.51408 70.92450 36.48050 15.83350 13.60070 8.69217 -4.77663 -16.04880 -18.56940 3.66889 41.84820 -3.00870 17.26010 0.53216 6.52084 -18.42370 -68.58140 -39.47860 27.60470 29.51530 39.07630 2.78928 -21.84550 -14.71570 12.54360 2.55954 1.11095 -38.62210 -9.97205 
83.08230 94.12710 35.33000 -15.70100 -4.71739 -88.17690 2.37264 12.93070 7.76990 3.71531 26.06860 15.72050 1.39587 6.46549 -43.33420 -0.00000 0.00000 -0.00000 -121.61600 -60.94970 -86.06220 -90.42120 53.29880 -31.72440 7.74576 8.72956 -14.78180 4.62020 1.47118 13.96600 93.61080 -0.75552 87.34410 62.32330 3.75061 70.47940 36.87530 15.83530 13.40710 9.22088 -4.71036 -16.09910 -19.04380 4.15069 43.50440 -2.67337 16.51860 0.44676 6.36729 -18.83320 -69.11940 -39.44460 27.36460 29.53840 38.71680 3.01595 -20.76850 -14.82020 12.71740 2.60182 1.14486 -37.90830 -9.85667 
82.70230 94.29210 35.56140 -15.80770 -4.06429 -90.03050 2.23235 12.93130 7.51800 3.54814 26.05030 15.20690 1.60605 7.23518 -40.92020 -0.00000 0.00000 -0.00000 -121.39000 -66.21260 -85.97950 -90.58950 53.40110 -32.18290 6.98172 8.90023 -14.00150 4.88806 1.40528 12.79100 94.20500 0.67658 86.02880 60.94100 4.59594 69.77370 37.01450 15.64430 12.77220 9.95017 -4.16493 -15.87390 -19.46630 4.21957 45.19470 -2.47285 15.71930 0.39226 6.23094 -19.16200 -69.25780 -39.55420 26.58770 29.47900 38.40080 3.38818 -20.30110 -15.07480 13.29950 2.72802 1.38670 -37.42740 -8.71054 
82.17180 94.57960 35.86360 -15.88680 -3.17752 -92.99450 1.98786 13.04600 7.09300 3.20914 26.24270 14.34290 0.73960 7.99308 -37.50830 -0.00000 0.00000 -0.00000 -122.46800 -73.36070 -87.39530 -91.44550 52.18490 -32.29420 5.85910 9.06726 -14.26890 6.01138 1.46947 11.96450 93.18550 1.07867 82.83210 58.70870 5.17230 69.04930 36.48650 15.38280 12.24270 10.90410 -3.20052 -15.34700 -19.84100 4.11195 47.05540 -2.40594 14.90510 0.36655 6.07586 -19.49830 -68.89360 -39.80890 25.27050 29.36960 38.06700 3.79580 -20.18430 -15.60110 14.31370 2.97044 1.80622 -37.22120 -6.65177 
